<svg xmlns="http://www.w3.org/2000/svg" width="237.205" height="51" viewBox="0 0 237.205 51">
  <g id="Group_46605" data-name="Group 46605" transform="translate(0.443 0.443)">
    <path id="Path_18523" data-name="Path 18523" d="M462.421,361.279l5.113-11.027,5.33,11.027Zm16.2,11.918h15.5l-18.234-31.3H459.935l-17.929,31.3H456.9l2.385-5.144H476.14Z" transform="translate(-389.728 -339.04)" fill="#fff"/>
    <rect id="Rectangle_3972" data-name="Rectangle 3972" width="14.666" height="31.29" transform="translate(105.758 2.895)" fill="#fff"/>
    <path id="Path_18524" data-name="Path 18524" d="M544.133,341.928H498.955v7.433h15.256v23.857h14.668V349.361h15.255Z" transform="translate(-376.967 -339.033)" fill="#fff"/>
    <path id="Path_18525" data-name="Path 18525" d="M448.1,376.766l-1.46-3.358-1.5,3.358Zm.23.533h-3.432l-.426.954a2.1,2.1,0,0,0-.2.788.655.655,0,0,0,.331.608,2.786,2.786,0,0,0,.96.174v.266H442.3v-.266a1.454,1.454,0,0,0,.865-.438,5.763,5.763,0,0,0,.837-1.479l3.5-7.812h.137l3.53,8.029a4.923,4.923,0,0,0,.83,1.44,1.125,1.125,0,0,0,.692.261v.266h-4.732v-.266h.192a1.481,1.481,0,0,0,.8-.16.385.385,0,0,0,.159-.332.84.84,0,0,0-.044-.268c-.009-.044-.081-.225-.214-.542Z" transform="translate(-389.661 -332.721)" fill="#fff"/>
    <path id="Path_18526" data-name="Path 18526" d="M455.59,372.6l.108,2.3h-.248a3.622,3.622,0,0,0-.913-1.4,1.511,1.511,0,0,0-.94-.376.7.7,0,0,0-.506.2.612.612,0,0,0-.209.457.587.587,0,0,0,.144.376,6.936,6.936,0,0,0,1.293,1.015,5.371,5.371,0,0,1,1.4,1.22,1.98,1.98,0,0,1,.334,1.119,2.359,2.359,0,0,1-.279,1.107,1.994,1.994,0,0,1-.8.83,2.27,2.27,0,0,1-1.132.286,3.956,3.956,0,0,1-1.293-.3,1.084,1.084,0,0,0-.3-.08c-.158,0-.29.121-.4.365h-.237l-.116-2.426h.248a3.146,3.146,0,0,0,.89,1.426,1.7,1.7,0,0,0,1.07.475.778.778,0,0,0,.565-.213.682.682,0,0,0,.22-.515.887.887,0,0,0-.215-.6,5.675,5.675,0,0,0-.968-.766,7.605,7.605,0,0,1-1.431-1.17,2.032,2.032,0,0,1-.477-1.3,2.122,2.122,0,0,1,.539-1.411,1.934,1.934,0,0,1,1.556-.63,2.236,2.236,0,0,1,1.061.272.682.682,0,0,0,.318.109.379.379,0,0,0,.209-.053,1.456,1.456,0,0,0,.252-.31Z" transform="translate(-387.621 -332.163)" fill="#fff"/>
    <path id="Path_18527" data-name="Path 18527" d="M457.694,370.081a1.115,1.115,0,0,1,.791,1.9,1.118,1.118,0,0,1-1.578,0,1.116,1.116,0,0,1,.787-1.9m1.012,3.259v5.349a1.625,1.625,0,0,0,.169.925.915.915,0,0,0,.657.229v.249h-3.66v-.249a.875.875,0,0,0,.663-.263,1.634,1.634,0,0,0,.146-.891v-3.946a1.583,1.583,0,0,0-.169-.91.887.887,0,0,0-.64-.225v-.268Z" transform="translate(-386.62 -332.724)" fill="#fff"/>
    <path id="Path_18528" data-name="Path 18528" d="M463.078,378.013v-2.26a4.177,4.177,0,0,0-1.293,1.094,1.324,1.324,0,0,0-.279.787.829.829,0,0,0,.236.583.648.648,0,0,0,.5.195,1.383,1.383,0,0,0,.834-.4m0,.523a3.543,3.543,0,0,1-2.213,1.093,1.307,1.307,0,0,1-.96-.378,1.284,1.284,0,0,1-.381-.95,1.852,1.852,0,0,1,.663-1.388,12.529,12.529,0,0,1,2.89-1.641v-.679a3.3,3.3,0,0,0-.082-.962.79.79,0,0,0-.316-.348.942.942,0,0,0-.519-.147,1.336,1.336,0,0,0-.772.209.37.37,0,0,0-.187.3.624.624,0,0,0,.2.375.922.922,0,0,1,.275.6.8.8,0,0,1-.263.6.968.968,0,0,1-.692.251,1.1,1.1,0,0,1-.76-.275.832.832,0,0,1-.307-.64,1.492,1.492,0,0,1,.412-.994,2.6,2.6,0,0,1,1.147-.726,4.736,4.736,0,0,1,1.531-.251,2.516,2.516,0,0,1,1.519.408,1.892,1.892,0,0,1,.725.884,5.58,5.58,0,0,1,.1,1.392v2.621a2.563,2.563,0,0,0,.038.581.332.332,0,0,0,.108.176.262.262,0,0,0,.167.06c.124,0,.25-.092.378-.273l.218.178a2.683,2.683,0,0,1-.749.776,1.608,1.608,0,0,1-.875.241,1.372,1.372,0,0,1-.9-.271,1.237,1.237,0,0,1-.4-.823" transform="translate(-385.802 -332.163)" fill="#fff"/>
    <path id="Path_18529" data-name="Path 18529" d="M468.185,372.778v.872a3.993,3.993,0,0,1,1-.813,2.161,2.161,0,0,1,1.023-.252,1.628,1.628,0,0,1,1.092.365,1.743,1.743,0,0,1,.577.9,7.1,7.1,0,0,1,.114,1.583v2.628a2,2,0,0,0,.143.974.814.814,0,0,0,.586.242v.249h-3.429v-.249a.726.726,0,0,0,.557-.318,2.058,2.058,0,0,0,.117-.9v-3a4.882,4.882,0,0,0-.065-1.048.629.629,0,0,0-.219-.334.555.555,0,0,0-.34-.12q-.621,0-1.152.88v3.625a1.987,1.987,0,0,0,.142.962.734.734,0,0,0,.533.255v.249h-3.429v-.249a.824.824,0,0,0,.6-.275,2.042,2.042,0,0,0,.124-.941v-3.819a1.937,1.937,0,0,0-.141-.955.854.854,0,0,0-.588-.245v-.268Z" transform="translate(-384.479 -332.163)" fill="#fff"/>
    <path id="Path_18530" data-name="Path 18530" d="M480.1,379.786v.266H474.99v-.266h.326a1.354,1.354,0,0,0,.685-.153.663.663,0,0,0,.289-.346,3.033,3.033,0,0,0,.077-.912V371.94a3.222,3.222,0,0,0-.078-.941.728.728,0,0,0-.321-.329,1.293,1.293,0,0,0-.652-.142h-.326v-.267H480.1v.267h-.323a1.338,1.338,0,0,0-.681.152.707.707,0,0,0-.3.348,3.076,3.076,0,0,0-.078.913v6.434a3.1,3.1,0,0,0,.083.94.746.746,0,0,0,.321.332,1.331,1.331,0,0,0,.65.139Z" transform="translate(-382.337 -332.684)" fill="#fff"/>
    <path id="Path_18531" data-name="Path 18531" d="M482.619,372.778v.872a3.973,3.973,0,0,1,1-.813,2.151,2.151,0,0,1,1.023-.252,1.623,1.623,0,0,1,1.089.365,1.738,1.738,0,0,1,.578.9,7,7,0,0,1,.115,1.583v2.628a2.011,2.011,0,0,0,.141.974.819.819,0,0,0,.586.242v.249h-3.429v-.249a.728.728,0,0,0,.558-.318,2.065,2.065,0,0,0,.116-.9v-3a4.875,4.875,0,0,0-.065-1.048.629.629,0,0,0-.219-.334.547.547,0,0,0-.34-.12c-.411,0-.8.294-1.149.88v3.625a1.971,1.971,0,0,0,.142.962.727.727,0,0,0,.533.255v.249h-3.429v-.249a.833.833,0,0,0,.6-.275,2.032,2.032,0,0,0,.122-.941v-3.819a1.936,1.936,0,0,0-.141-.955.855.855,0,0,0-.586-.245v-.268Z" transform="translate(-381.244 -332.163)" fill="#fff"/>
    <path id="Path_18532" data-name="Path 18532" d="M490.828,372.6l.105,2.3h-.246a3.62,3.62,0,0,0-.913-1.4,1.521,1.521,0,0,0-.941-.376.7.7,0,0,0-.505.2.615.615,0,0,0-.208.457.593.593,0,0,0,.143.376,6.986,6.986,0,0,0,1.3,1.015,5.382,5.382,0,0,1,1.4,1.22,1.971,1.971,0,0,1,.334,1.119,2.363,2.363,0,0,1-.282,1.107,1.977,1.977,0,0,1-.794.83,2.26,2.26,0,0,1-1.132.286,3.958,3.958,0,0,1-1.291-.3,1.094,1.094,0,0,0-.3-.08c-.159,0-.29.121-.4.365h-.24l-.116-2.426h.249a3.137,3.137,0,0,0,.891,1.426,1.7,1.7,0,0,0,1.071.475.787.787,0,0,0,.567-.213.7.7,0,0,0,.218-.515.883.883,0,0,0-.218-.6,5.625,5.625,0,0,0-.966-.766,7.44,7.44,0,0,1-1.431-1.17,2.026,2.026,0,0,1-.477-1.3,2.122,2.122,0,0,1,.539-1.411,1.931,1.931,0,0,1,1.555-.63,2.238,2.238,0,0,1,1.063.272.682.682,0,0,0,.318.109.377.377,0,0,0,.208-.053,1.407,1.407,0,0,0,.253-.31Z" transform="translate(-379.725 -332.163)" fill="#fff"/>
    <path id="Path_18533" data-name="Path 18533" d="M493.994,370.726v2.469h1.6v.712h-1.6v4.175a3.312,3.312,0,0,0,.054.756.556.556,0,0,0,.19.275.436.436,0,0,0,.253.105c.312,0,.608-.239.886-.712l.215.159a1.972,1.972,0,0,1-1.9,1.378,1.672,1.672,0,0,1-1.087-.357,1.584,1.584,0,0,1-.567-.8,6.76,6.76,0,0,1-.072-1.331v-3.651h-.88v-.253a9.376,9.376,0,0,0,1.551-1.348,8.318,8.318,0,0,0,1.116-1.58Z" transform="translate(-378.729 -332.58)" fill="#fff"/>
    <path id="Path_18534" data-name="Path 18534" d="M496.955,370.081a1.115,1.115,0,0,1,.788,1.9,1.115,1.115,0,0,1-1.577-1.577,1.066,1.066,0,0,1,.788-.328m1.011,3.259v5.349a1.638,1.638,0,0,0,.168.925.918.918,0,0,0,.659.229v.249h-3.66v-.249a.876.876,0,0,0,.663-.263,1.645,1.645,0,0,0,.146-.891v-3.946a1.6,1.6,0,0,0-.168-.91.9.9,0,0,0-.641-.225v-.268Z" transform="translate(-377.823 -332.724)" fill="#fff"/>
    <path id="Path_18535" data-name="Path 18535" d="M501.37,370.726v2.469h1.6v.712h-1.6v4.175a3.149,3.149,0,0,0,.055.756.539.539,0,0,0,.188.275.437.437,0,0,0,.253.105c.311,0,.607-.239.885-.712l.218.159a1.975,1.975,0,0,1-1.9,1.378,1.669,1.669,0,0,1-1.086-.357,1.585,1.585,0,0,1-.567-.8,6.908,6.908,0,0,1-.071-1.331v-3.651h-.88v-.253a9.312,9.312,0,0,0,1.55-1.348,8.21,8.21,0,0,0,1.116-1.58Z" transform="translate(-377.076 -332.58)" fill="#fff"/>
    <path id="Path_18536" data-name="Path 18536" d="M509.2,372.743v5.287a1.986,1.986,0,0,0,.143.973.831.831,0,0,0,.586.244v.249H507.17v-.9a3.52,3.52,0,0,1-.967.843,2.235,2.235,0,0,1-1.082.262,1.6,1.6,0,0,1-1.015-.348,1.7,1.7,0,0,1-.6-.821,6.033,6.033,0,0,1-.151-1.638v-2.681a1.951,1.951,0,0,0-.141-.955.859.859,0,0,0-.588-.245v-.268h2.754v4.614a3.849,3.849,0,0,0,.067.93.63.63,0,0,0,.215.319.576.576,0,0,0,.343.108.835.835,0,0,0,.469-.137,2.954,2.954,0,0,0,.69-.759v-3.607a1.937,1.937,0,0,0-.141-.955.856.856,0,0,0-.588-.245v-.268Z" transform="translate(-376.143 -332.128)" fill="#fff"/>
    <path id="Path_18537" data-name="Path 18537" d="M512.106,370.726v2.469h1.6v.712h-1.6v4.175a3.267,3.267,0,0,0,.053.756.558.558,0,0,0,.191.275.433.433,0,0,0,.251.105c.313,0,.608-.239.888-.712l.217.159a1.973,1.973,0,0,1-1.9,1.378,1.68,1.68,0,0,1-1.088-.357,1.6,1.6,0,0,1-.567-.8,6.762,6.762,0,0,1-.072-1.331v-3.651H509.2v-.253a9.36,9.36,0,0,0,1.55-1.348,8.21,8.21,0,0,0,1.116-1.58Z" transform="translate(-374.67 -332.58)" fill="#fff"/>
    <path id="Path_18538" data-name="Path 18538" d="M517.334,375.436a6.623,6.623,0,0,0-.127-1.6,1.3,1.3,0,0,0-.392-.655.577.577,0,0,0-.4-.131.708.708,0,0,0-.61.367,3.15,3.15,0,0,0-.426,1.76v.253Zm1.777.48h-3.7a3.467,3.467,0,0,0,.715,2.12,1.507,1.507,0,0,0,1.2.6,1.364,1.364,0,0,0,.786-.242,3.082,3.082,0,0,0,.759-.869l.246.159a4.085,4.085,0,0,1-1.213,1.586,2.608,2.608,0,0,1-1.54.465,2.56,2.56,0,0,1-2.277-1.153,4.065,4.065,0,0,1-.623-2.31,3.827,3.827,0,0,1,.916-2.687,2.817,2.817,0,0,1,2.142-1,2.322,2.322,0,0,1,1.781.84,3.834,3.834,0,0,1,.814,2.491" transform="translate(-373.716 -332.163)" fill="#fff"/>
    <path id="Path_18539" data-name="Path 18539" d="M524.992,373.1a.84.84,0,0,0-.632.277,1.927,1.927,0,0,0-.348,1.1q-.081.817-.082,2.276a10.083,10.083,0,0,0,.1,1.443,1.381,1.381,0,0,0,.342.777.8.8,0,0,0,.592.269.821.821,0,0,0,.542-.18,1.226,1.226,0,0,0,.376-.687,16.668,16.668,0,0,0,.146-2.77,6.847,6.847,0,0,0-.138-1.683,1.3,1.3,0,0,0-.4-.667.756.756,0,0,0-.493-.152m-.031-.515a3.109,3.109,0,0,1,1.637.454,2.9,2.9,0,0,1,1.149,1.291,4.26,4.26,0,0,1,.393,1.832,3.885,3.885,0,0,1-.728,2.4,2.876,2.876,0,0,1-2.431,1.167,2.777,2.777,0,0,1-2.343-1.066,3.936,3.936,0,0,1-.821-2.475,3.99,3.99,0,0,1,.839-2.529,2.758,2.758,0,0,1,2.306-1.078" transform="translate(-371.844 -332.163)" fill="#fff"/>
    <path id="Path_18540" data-name="Path 18540" d="M530.769,374.052l.012,4.681a1.575,1.575,0,0,0,.144.863,1.035,1.035,0,0,0,.851.247v.249H527.8v-.249a1.571,1.571,0,0,0,.65-.105.544.544,0,0,0,.263-.274,2.284,2.284,0,0,0,.073-.731l-.006-4.681h-.98v-.712h.978v-.493l0-.34a2.245,2.245,0,0,1,.764-1.732,2.949,2.949,0,0,1,2.061-.693,2.166,2.166,0,0,1,1.318.329.941.941,0,0,1,.43.736.731.731,0,0,1-.267.562,1.022,1.022,0,0,1-.708.237.866.866,0,0,1-.6-.195.573.573,0,0,1-.219-.432,1.68,1.68,0,0,1,.042-.268.976.976,0,0,0,.028-.23.278.278,0,0,0-.086-.224.407.407,0,0,0-.283-.107.44.44,0,0,0-.352.171.891.891,0,0,0-.141.557l0,1.267v.854h1.009v.712Z" transform="translate(-370.504 -332.724)" fill="#fff"/>
    <path id="Path_18541" data-name="Path 18541" d="M543.471,370.261v2.648H543.2a4.2,4.2,0,0,0-.51-1.318,1.953,1.953,0,0,0-.771-.638,2.44,2.44,0,0,0-.956-.131h-.731v7.553a3.03,3.03,0,0,0,.086.94.776.776,0,0,0,.323.33,1.35,1.35,0,0,0,.662.141h.327v.266h-5.128v-.266h.323a1.321,1.321,0,0,0,.682-.154.687.687,0,0,0,.294-.346,2.981,2.981,0,0,0,.08-.911v-7.553h-.711a2.075,2.075,0,0,0-1.443.419,2.778,2.778,0,0,0-.8,1.668h-.267v-2.648Z" transform="translate(-368.964 -332.684)" fill="#fff"/>
    <path id="Path_18542" data-name="Path 18542" d="M545.516,375.436a6.561,6.561,0,0,0-.127-1.6,1.287,1.287,0,0,0-.392-.655.583.583,0,0,0-.4-.131.706.706,0,0,0-.61.367,3.16,3.16,0,0,0-.426,1.76v.253Zm1.776.48h-3.7a3.482,3.482,0,0,0,.712,2.12,1.513,1.513,0,0,0,1.2.6,1.368,1.368,0,0,0,.787-.242,3.046,3.046,0,0,0,.758-.869l.246.159a4.052,4.052,0,0,1-1.214,1.586,2.6,2.6,0,0,1-1.54.465,2.552,2.552,0,0,1-2.273-1.153,4.066,4.066,0,0,1-.623-2.31,3.832,3.832,0,0,1,.914-2.687,2.814,2.814,0,0,1,2.143-1,2.327,2.327,0,0,1,1.78.84,3.826,3.826,0,0,1,.813,2.491" transform="translate(-367.401 -332.163)" fill="#fff"/>
    <path id="Path_18543" data-name="Path 18543" d="M552.447,377.789l.223.173a3.367,3.367,0,0,1-1.19,1.336,2.84,2.84,0,0,1-1.513.437,2.62,2.62,0,0,1-2.164-1.016,3.806,3.806,0,0,1-.809-2.447,4.1,4.1,0,0,1,.738-2.424,2.833,2.833,0,0,1,2.449-1.262,2.48,2.48,0,0,1,1.666.525,1.529,1.529,0,0,1,.619,1.175.851.851,0,0,1-.907.9.948.948,0,0,1-.705-.284,1.629,1.629,0,0,1-.344-1,1.089,1.089,0,0,0-.211-.635.509.509,0,0,0-.391-.182.709.709,0,0,0-.594.368,3.063,3.063,0,0,0-.376,1.7,5.51,5.51,0,0,0,.3,1.824,2.824,2.824,0,0,0,.831,1.3,1.5,1.5,0,0,0,.945.308,1.462,1.462,0,0,0,.673-.164,3.166,3.166,0,0,0,.754-.627" transform="translate(-366.202 -332.163)" fill="#fff"/>
    <path id="Path_18544" data-name="Path 18544" d="M555.065,370.261v3.916a4.088,4.088,0,0,1,1.015-.83,2.027,2.027,0,0,1,.957-.241,1.689,1.689,0,0,1,1.083.359,1.722,1.722,0,0,1,.6.848,6.355,6.355,0,0,1,.148,1.64v2.633a1.98,1.98,0,0,0,.145.973.829.829,0,0,0,.584.244v.249h-3.429V379.8a.793.793,0,0,0,.545-.29,2.018,2.018,0,0,0,.13-.927v-3a5.067,5.067,0,0,0-.064-1.05.66.66,0,0,0-.219-.333.566.566,0,0,0-.346-.118.941.941,0,0,0-.559.2,2.563,2.563,0,0,0-.586.7v3.611a2.289,2.289,0,0,0,.107.912.714.714,0,0,0,.568.3v.249h-3.431V379.8a.831.831,0,0,0,.607-.278,2.023,2.023,0,0,0,.122-.939v-6.857a1.937,1.937,0,0,0-.141-.955.849.849,0,0,0-.589-.246v-.267Z" transform="translate(-365.011 -332.684)" fill="#fff"/>
    <path id="Path_18545" data-name="Path 18545" d="M561.778,372.778v.872a4.062,4.062,0,0,1,1-.813,2.167,2.167,0,0,1,1.026-.252,1.616,1.616,0,0,1,1.088.365,1.72,1.72,0,0,1,.576.9,6.9,6.9,0,0,1,.116,1.583v2.628a1.991,1.991,0,0,0,.142.974.818.818,0,0,0,.585.242v.249h-3.429v-.249a.731.731,0,0,0,.56-.318,2.078,2.078,0,0,0,.118-.9v-3a4.87,4.87,0,0,0-.065-1.048.643.643,0,0,0-.219-.334.557.557,0,0,0-.343-.12q-.619,0-1.151.88v3.625a1.962,1.962,0,0,0,.144.962.724.724,0,0,0,.531.255v.249h-3.429v-.249a.833.833,0,0,0,.6-.275,2.03,2.03,0,0,0,.122-.941v-3.819a1.942,1.942,0,0,0-.14-.955.856.856,0,0,0-.588-.245v-.268Z" transform="translate(-363.506 -332.163)" fill="#fff"/>
    <path id="Path_18546" data-name="Path 18546" d="M568.944,373.1a.834.834,0,0,0-.63.277,1.91,1.91,0,0,0-.346,1.1q-.085.817-.085,2.276a9.894,9.894,0,0,0,.1,1.443,1.379,1.379,0,0,0,.34.777.838.838,0,0,0,1.135.089,1.212,1.212,0,0,0,.376-.687,16.4,16.4,0,0,0,.146-2.77,6.869,6.869,0,0,0-.137-1.683,1.3,1.3,0,0,0-.405-.667.752.752,0,0,0-.493-.152m-.031-.515a3.1,3.1,0,0,1,1.635.454,2.894,2.894,0,0,1,1.152,1.291,4.261,4.261,0,0,1,.394,1.832,3.893,3.893,0,0,1-.728,2.4,2.88,2.88,0,0,1-2.431,1.167,2.78,2.78,0,0,1-2.344-1.066,3.938,3.938,0,0,1-.824-2.475,4,4,0,0,1,.841-2.529,2.759,2.759,0,0,1,2.3-1.078" transform="translate(-361.995 -332.163)" fill="#fff"/>
    <path id="Path_18547" data-name="Path 18547" d="M574.45,370.261v8.387a1.639,1.639,0,0,0,.169.925.918.918,0,0,0,.659.229v.249h-3.661V379.8a.877.877,0,0,0,.665-.263,1.637,1.637,0,0,0,.145-.891v-6.983a1.6,1.6,0,0,0-.165-.908.9.9,0,0,0-.644-.229v-.267Z" transform="translate(-360.684 -332.684)" fill="#fff"/>
    <path id="Path_18548" data-name="Path 18548" d="M578.335,373.1a.838.838,0,0,0-.63.277,1.919,1.919,0,0,0-.346,1.1q-.084.817-.083,2.276a9.727,9.727,0,0,0,.1,1.443,1.379,1.379,0,0,0,.339.777.808.808,0,0,0,.594.269.821.821,0,0,0,.542-.18,1.241,1.241,0,0,0,.376-.687,16.732,16.732,0,0,0,.144-2.77,6.806,6.806,0,0,0-.137-1.683,1.282,1.282,0,0,0-.406-.667.746.746,0,0,0-.492-.152m-.031-.515a3.109,3.109,0,0,1,1.637.454,2.9,2.9,0,0,1,1.151,1.291,4.26,4.26,0,0,1,.394,1.832,3.885,3.885,0,0,1-.73,2.4,2.875,2.875,0,0,1-2.43,1.167,2.778,2.778,0,0,1-2.344-1.066,3.944,3.944,0,0,1-.823-2.475,3.991,3.991,0,0,1,.84-2.529,2.756,2.756,0,0,1,2.3-1.078" transform="translate(-359.89 -332.163)" fill="#fff"/>
    <path id="Path_18549" data-name="Path 18549" d="M584.236,373.027a.843.843,0,0,0-.709.423,3.486,3.486,0,0,0-.289,1.752,2.708,2.708,0,0,0,.284,1.476.823.823,0,0,0,.676.4.86.86,0,0,0,.722-.4,2.848,2.848,0,0,0,.288-1.547,3.351,3.351,0,0,0-.322-1.76.741.741,0,0,0-.65-.348m-.421,7.5a2.529,2.529,0,0,0-.976.121.68.68,0,0,0-.409.607.835.835,0,0,0,.424.67,3,3,0,0,0,1.6.3,3.808,3.808,0,0,0,1.575-.267.827.827,0,0,0,.574-.75.431.431,0,0,0-.108-.3,1.029,1.029,0,0,0-.588-.3,15.468,15.468,0,0,0-2.094-.08m1.67-7.657h2.274v.79h-1.293a2.5,2.5,0,0,1,.488.641,1.981,1.981,0,0,1,.174.816,2.016,2.016,0,0,1-.4,1.25,2.636,2.636,0,0,1-1.089.83,3.117,3.117,0,0,1-1.224.3c-.028,0-.318-.013-.865-.037a.751.751,0,0,0-.545.212.689.689,0,0,0-.22.509.529.529,0,0,0,.2.425,1,1,0,0,0,.645.166l1.25-.013a4.517,4.517,0,0,1,2.085.332,1.525,1.525,0,0,1,.816,1.422,1.82,1.82,0,0,1-.376,1.115,2.213,2.213,0,0,1-.989.737,6,6,0,0,1-2.142.355,7.192,7.192,0,0,1-1.66-.178,2.3,2.3,0,0,1-1.076-.491.927.927,0,0,1-.324-.66.844.844,0,0,1,.251-.6,2.021,2.021,0,0,1,.931-.443,1.419,1.419,0,0,1-.943-1.285,1.526,1.526,0,0,1,.383-.966,3.035,3.035,0,0,1,1.211-.814,2.977,2.977,0,0,1-1.4-.932,2.179,2.179,0,0,1-.432-1.335,2.233,2.233,0,0,1,.808-1.711,2.991,2.991,0,0,1,2.08-.725,3.744,3.744,0,0,1,1.386.284" transform="translate(-358.534 -332.163)" fill="#fff"/>
    <path id="Path_18550" data-name="Path 18550" d="M590.368,379.778l-2.18-5.014a6.7,6.7,0,0,0-.727-1.393,1.224,1.224,0,0,0-.567-.361v-.267h3.591v.267a.832.832,0,0,0-.5.137.376.376,0,0,0-.143.3,3.538,3.538,0,0,0,.361,1.083l1.157,2.66.79-2.056a5.052,5.052,0,0,0,.425-1.52.545.545,0,0,0-.176-.426.967.967,0,0,0-.624-.174v-.267h2.25v.267a.849.849,0,0,0-.542.256,6.359,6.359,0,0,0-.7,1.5l-1.928,5.006a10.993,10.993,0,0,1-1.081,2.309,1.559,1.559,0,0,1-1.25.606,1.38,1.38,0,0,1-.972-.344,1.089,1.089,0,0,1-.371-.829,1,1,0,0,1,.256-.7.831.831,0,0,1,.633-.273.759.759,0,0,1,.582.231,1.039,1.039,0,0,1,.228.717.772.772,0,0,0,.061.356.2.2,0,0,0,.17.081.538.538,0,0,0,.367-.211,4.424,4.424,0,0,0,.678-1.389Z" transform="translate(-357.261 -332.128)" fill="#fff"/>
    <path id="Path_18551" data-name="Path 18551" d="M407.345,371.338a3.253,3.253,0,0,1,.174-.6,1.143,1.143,0,0,0-.058-.861c.086-.43-.2-.679-.2-.859a1.693,1.693,0,0,0-.231-.946,6.618,6.618,0,0,1,.949-1.835,5.239,5.239,0,0,1,.353-.391,3.894,3.894,0,0,1,.392-.424,5.6,5.6,0,0,0,.6-1.025c.06-.151,0-.453.151-.545s.248-.513.423-.845c.07-.133.211-.362.12-.422s.05-.65.05-.65a4.363,4.363,0,0,1-.517.4c-.092.029-.2.1-.317.128a1.866,1.866,0,0,1-.424,0h-.33c-.093,0-.152-.212-.152-.212s-.177-.262-.086-.266-.087-.366-.108-.5a1.049,1.049,0,0,0-.229-.415,1.513,1.513,0,0,1-.225-.685,1.346,1.346,0,0,1-.167-.461,1.422,1.422,0,0,0,0-.49,1.083,1.083,0,0,1-.208-.475l.121-.815a3.111,3.111,0,0,1-.031-.573c.031-.121-.06-.14-.012-.252s.115-.639.151-.6a1.983,1.983,0,0,1,.065.755c-.033.164.109-.415.109-.323a3.847,3.847,0,0,0-.066.884c.064.154.185.765.258.95s-.02.366.087.69a2.916,2.916,0,0,1,.255.676,3.288,3.288,0,0,1,.121.573c0,.121.06.783.06.783s.082-.153-.069.3a1.172,1.172,0,0,0,.5-.022c.217-.064.417.039.518,0,.283-.108.213-.324.454-.324s.136-.033.345-.064.32-.251.411-.28.17-.027.258-.064a.422.422,0,0,0,.239-.24.7.7,0,0,1,.275-.059.494.494,0,0,0,.269-.092l.165-.173a2.833,2.833,0,0,0,.261-.279,1.907,1.907,0,0,1,.148-.181,1.221,1.221,0,0,0,0-.543c-.17-.312-.17.034-.364-.269-.067-.1.042-.427.042-.519s-.215.13-.431.239a.638.638,0,0,1-.366-.152c-.073-.054-.067-.323-.067-.323s-.2-.19-.171-.282-.108-.086-.044-.215.173-.345.375-.108a.429.429,0,0,1,.059.3s.126.181.215.151.125.143.215.174a3.128,3.128,0,0,1,.327.158l.06.392.3.061.364-.029.481.059s.28-.043.432-.058a.342.342,0,0,1,.345.151,1.771,1.771,0,0,1,.219.329.7.7,0,0,0,.342.211c.131.042.368-.215.476-.108-.108.108-.195.215-.195.215l-.2.043a2,2,0,0,0,.24.324c.1.088.105.114.3.064.217-.236.034.109.022.261.064.344.5.83.5.949a4.159,4.159,0,0,0,.366,1.015.674.674,0,0,1,.169.377s.211.3.3.333.173.321.173.5a1.919,1.919,0,0,0,.222.58l.081.388.2.139.229-.343a2.255,2.255,0,0,1,.212-.513c.163-.3.481-.851.594-1.053.193-.344,0-.41,0-.41l.171.022s-.011.015.109-.022.2,0,.2-.152.076-.135.076-.135l.273-.061s-.032,0,.181-.18a5.67,5.67,0,0,1,.512-.453c.182-.122.195-.215.167-.335s.2-.354.2-.354a.447.447,0,0,0,.459.025c.291-.12.572-.135.693-.224s.143-.158.235.023a3.74,3.74,0,0,1,.176.495.51.51,0,0,0,.188.247s.165.176.236.271.14.048.14.048l.119.059.036.189v.294c0-.158-.048.589-.048.8.048.1.212.129.34.129a4.6,4.6,0,0,1,.543-.575c.023.14.2.115.222.2a1.863,1.863,0,0,0,.084.342,1.291,1.291,0,0,1,.141.224c.118.118.07.13.07.13a.566.566,0,0,1,.129.328,2.2,2.2,0,0,1-.045.541c-.023.093-.106.649-.106.649l.067-.093.144.339.2.272.141.13.153.176a1.069,1.069,0,0,1,.187.3c.031.121.154.165.319.295a3.387,3.387,0,0,1,.469.224,1.219,1.219,0,0,0,.319.106c.059.047.094-.024.129-.106a2.307,2.307,0,0,1-.34-.519c-.031-.211-.176-.258-.176-.435a3.142,3.142,0,0,0-.742-.388c-.059.13-.271-.072-.414-.154-.088-.211-.151-.178-.151-.388s-.032-.474.058-.564a1.348,1.348,0,0,0,.236-.553.771.771,0,0,1,.13-.423c.1.023.331-.006.365.045a1.536,1.536,0,0,1,.107.39,2.069,2.069,0,0,0,.162.433s.06-.045.167.119a.732.732,0,0,0,.195.184h.242c.091,0,.212.452.212.542s.211.061.421-.12.273-.151.424-.3.452-.39.452-.693.213-.482.122-.755a4.2,4.2,0,0,0-.424-.753,1.274,1.274,0,0,0-.392-.424.351.351,0,0,1-.12-.423,1.066,1.066,0,0,1,.552-.326c-.015.215.182.257.251.355.084-.034.1-.006.2-.116-.078-.108-.051-.274.045-.267s.375-.022.524-.022.547,0,.648-.122.318-.1.621-.405.421-.514.663-.785.452-.273.482-.846.175-.509.144-.946c-.091-.213-.251-.876-.251-.876a2.9,2.9,0,0,0-.438-.405c-.119-.061-.3,0-.24-.126a1.09,1.09,0,0,1,.209-.251,4.438,4.438,0,0,0,.283-.563c-.252-.279-.475-.155-.627-.155a2.182,2.182,0,0,1-.439-.086l-.149-.211.089-.182a1.156,1.156,0,0,1,.437-.4c.592-.251.529.547.589.637s.379.081.379.081l.344.372s.283.135.283.284c-.032.158.05.29.05.381s.121.241.121.332a2.3,2.3,0,0,0,.182.452,1.418,1.418,0,0,0,.552-.195c.212-.149.1-.842.1-.842a2.354,2.354,0,0,0-.5-.689.8.8,0,0,1-.531-.72c0-.181.032-.592.313-.625s.237.274.493.356.509-.333.537-.6a.833.833,0,0,0-.206-.542l.121-.241-.031-.453s-.241-.513-.393-.815-.119-.452-.209-.573-.545-.633-.545-.633l-.181-.031-.089.272h-.273s-.3-.149-.151-.3a.891.891,0,0,0,.182-.454l-.182-.271v-.272a1.208,1.208,0,0,0,.574.151,2.588,2.588,0,0,1,.6.031l.211.212.515-.031-.122-.332-.18-.212-.029-.06.271-.029.061-.092a1.85,1.85,0,0,1,.181.333,5.441,5.441,0,0,1,.241.845,1.177,1.177,0,0,0,.481.665,1.835,1.835,0,0,1,.453.452l.242.271.151.152s.031-.3.031-.513-.241-.423-.272-.513a2.144,2.144,0,0,1-.031-.393s-.211-.271-.362-.3-.269-.3-.269-.3v-.151l.3.091.12-.18-.181-.184-.182-.179.244.059h.18l-.053-.164-.444-.476a17.141,17.141,0,0,0-14.043-4.068,17.314,17.314,0,0,0-12.614,9.4.738.738,0,0,0,.381.318c.282.111.261.151.381.17a1.562,1.562,0,0,0,.222.02s-.033-.1.132-.015a.193.193,0,0,1,.122.223l.174.163.168.092.256-.024a.349.349,0,0,1,.253.044c.061.048-.021.419-.135.676-.105.236-.211.119-.344.285-.12.144-.181.179-.286.149s-.127.087-.253,0-.146-.069-.343-.069a2.421,2.421,0,0,1-.432-.105c-.084,0-.114-.078-.256-.132s-.077.012-.193-.05a.33.33,0,0,0-.271.018l-.115-.556a14.541,14.541,0,0,0-1.208,7.722c.406,5.511,2.692,8.041,2.692,8.041" transform="translate(-398.11 -338.402)" fill="#fff"/>
    <path id="Path_18552" data-name="Path 18552" d="M438.926,362.056a17.135,17.135,0,1,1-17.133-17.136A17.135,17.135,0,0,1,438.926,362.056Z" transform="translate(-398.097 -338.363)" fill="none" stroke="#fff" stroke-width="1.111"/>
    <path id="Path_18553" data-name="Path 18553" d="M446.686,363.256a23.694,23.694,0,1,1-23.692-23.693A23.694,23.694,0,0,1,446.686,363.256Z" transform="translate(-399.298 -339.563)" fill="none" stroke="#fff" stroke-width="0.885"/>
    <path id="Path_18554" data-name="Path 18554" d="M406.375,369.783l-.667,1.267,1.327-.518Zm.2-1.948.517.59-.414.775.957,1.094.815-.318.514.588-3.636,1.338-.512-.586Z" transform="translate(-398.06 -333.227)" fill="#fff"/>
    <path id="Path_18555" data-name="Path 18555" d="M406.018,368.8l-.427-.574a.87.87,0,0,0,.317-.493.8.8,0,0,0-.128-.539.807.807,0,0,0-.4-.377.444.444,0,0,0-.39.027.337.337,0,0,0-.149.176.635.635,0,0,0,0,.3c.018.088.075.282.168.581a1.977,1.977,0,0,1,.118.889.934.934,0,0,1-.452.657.918.918,0,0,1-.521.133.977.977,0,0,1-.547-.2,1.842,1.842,0,0,1-.471-.544,1.505,1.505,0,0,1-.269-1.029,1.066,1.066,0,0,1,.5-.723l.4.61a.628.628,0,0,0-.244.378.725.725,0,0,0,.133.458.8.8,0,0,0,.367.355.257.257,0,0,0,.252-.016.279.279,0,0,0,.132-.2,1.849,1.849,0,0,0-.138-.7,3.546,3.546,0,0,1-.182-.807,1.027,1.027,0,0,1,.11-.53,1.1,1.1,0,0,1,.419-.419,1.064,1.064,0,0,1,.588-.153,1.04,1.04,0,0,1,.6.212,2.084,2.084,0,0,1,.518.6,1.556,1.556,0,0,1,.271,1.064,1.383,1.383,0,0,1-.568.856" transform="translate(-398.502 -333.624)" fill="#fff"/>
    <path id="Path_18556" data-name="Path 18556" d="M405.546,365.494l-3.3,1.475-.295-.663,3.3-1.473Z" transform="translate(-398.704 -333.9)" fill="#fff"/>
    <path id="Path_18557" data-name="Path 18557" d="M403.225,363.537l-1.137.874,1.422.08Zm1-1.687.225.749-.7.536.416,1.392.873.051.223.744-3.863-.3-.223-.744Z" transform="translate(-398.878 -334.569)" fill="#fff"/>
    <path id="Path_18558" data-name="Path 18558" d="M404.367,362.194l-3.6.371-.072-.7,2.267-1.732-2.42.249-.07-.67,3.6-.37.075.725-2.214,1.7,2.364-.242Z" transform="translate(-399.034 -335.132)" fill="#fff"/>
    <rect id="Rectangle_3973" data-name="Rectangle 3973" width="0.726" height="3.617" transform="translate(1.728 20.308) rotate(-80.337)" fill="#fff"/>
    <path id="Path_18559" data-name="Path 18559" d="M404.409,356.276l-3.454-1.059.206-.677,2.762-.712-2.326-.712.2-.645,3.459,1.06-.214.7-2.7.706,2.273.7Z" transform="translate(-398.927 -336.671)" fill="#fff"/>
    <path id="Path_18560" data-name="Path 18560" d="M404.06,353.176l.266-.662a.853.853,0,0,0,.585.011.78.78,0,0,0,.392-.392.8.8,0,0,0,.11-.539.434.434,0,0,0-.226-.32.312.312,0,0,0-.228-.033.616.616,0,0,0-.258.159c-.064.064-.2.213-.409.448a1.979,1.979,0,0,1-.693.565.938.938,0,0,1-.8-.039.952.952,0,0,1-.388-.375,1,1,0,0,1-.119-.569,1.852,1.852,0,0,1,.215-.687,1.515,1.515,0,0,1,.738-.77,1.06,1.06,0,0,1,.878.05l-.311.657a.633.633,0,0,0-.448-.007.718.718,0,0,0-.322.353.843.843,0,0,0-.114.5.272.272,0,0,0,.149.207.277.277,0,0,0,.245,0,1.87,1.87,0,0,0,.522-.48,3.547,3.547,0,0,1,.591-.58,1.019,1.019,0,0,1,.509-.182,1.135,1.135,0,0,1,1.014.558,1.02,1.02,0,0,1,.133.617,2.069,2.069,0,0,1-.244.758,1.563,1.563,0,0,1-.765.787,1.4,1.4,0,0,1-1.026-.038" transform="translate(-398.627 -337.246)" fill="#fff"/>
    <path id="Path_18561" data-name="Path 18561" d="M406.957,350.7l-2.4-1.8-.643.853-.49-.366,1.719-2.289.49.366-.64.854,2.4,1.8Z" transform="translate(-398.373 -337.875)" fill="#fff"/>
    <path id="Path_18562" data-name="Path 18562" d="M407.891,349.238l-2.628-2.487.5-.526,2.623,2.487Z" transform="translate(-397.961 -338.07)" fill="#fff"/>
    <path id="Path_18563" data-name="Path 18563" d="M409.235,348.181l-1.932-2.3-.818.689-.394-.471,2.195-1.841.393.471-.816.685,1.929,2.3Z" transform="translate(-397.776 -338.511)" fill="#fff"/>
    <path id="Path_18564" data-name="Path 18564" d="M408.511,344.079l.629-.364.987,1.7a4.12,4.12,0,0,0,.328.513.587.587,0,0,0,.373.2.779.779,0,0,0,.484-.124.756.756,0,0,0,.339-.345.5.5,0,0,0,.006-.366,4.21,4.21,0,0,0-.281-.55L410.367,343l.627-.365.958,1.646a4.987,4.987,0,0,1,.411.828,1.029,1.029,0,0,1,.042.5,1.107,1.107,0,0,1-.218.47,1.831,1.831,0,0,1-.543.443,2.014,2.014,0,0,1-.737.29,1.149,1.149,0,0,1-.521-.057.983.983,0,0,1-.377-.247,4.28,4.28,0,0,1-.525-.758Z" transform="translate(-397.234 -338.874)" fill="#fff"/>
    <path id="Path_18565" data-name="Path 18565" d="M413.522,345.5l-1.044-2.815-1,.372-.214-.575,2.686-1,.213.577-1,.372,1.044,2.815Z" transform="translate(-396.617 -339.133)" fill="#fff"/>
    <path id="Path_18566" data-name="Path 18566" d="M414.867,344.927l-.682-3.551,2.626-.5.115.6-1.911.365.149.782,1.78-.341.115.6-1.781.339.186.963,1.979-.378.115.6Z" transform="translate(-395.962 -339.269)" fill="#fff"/>
    <path id="Path_18567" data-name="Path 18567" d="M420.345,342.615a1.358,1.358,0,0,0,.149.965.918.918,0,0,0,.667.417.928.928,0,0,0,.754-.213,1.4,1.4,0,0,0,.406-.9,1.363,1.363,0,0,0-.137-.957,1,1,0,0,0-1.436-.2,1.371,1.371,0,0,0-.4.885m-.749-.081a2.327,2.327,0,0,1,.294-.894,1.717,1.717,0,0,1,.4-.446,1.409,1.409,0,0,1,.507-.253,1.926,1.926,0,0,1,.793-.034,1.689,1.689,0,0,1,1.193.671,2.214,2.214,0,0,1-.382,2.721,1.9,1.9,0,0,1-2.527-.355,1.877,1.877,0,0,1-.28-1.41" transform="translate(-394.756 -339.267)" fill="#fff"/>
    <path id="Path_18568" data-name="Path 18568" d="M422.536,344.817l1.135-3.432,2.354.78-.192.579-1.662-.55L423.9,343l1.44.475-.192.581-1.44-.475-.484,1.463Z" transform="translate(-394.091 -339.155)" fill="#fff"/>
    <path id="Path_18569" data-name="Path 18569" d="M427.277,347.044l1.753-2.438-.868-.624.356-.5,2.326,1.67-.42.569-.8-.694-1.753,2.44Z" transform="translate(-393.028 -338.684)" fill="#fff"/>
    <path id="Path_18570" data-name="Path 18570" d="M428.666,347.9l2.561-2.552,1.888,1.894-.436.432-1.371-1.38-.566.564,1.278,1.283-.435.432-1.277-1.284-.7.692,1.421,1.427-.433.432Z" transform="translate(-392.717 -338.268)" fill="#fff"/>
    <path id="Path_18571" data-name="Path 18571" d="M432.808,350.732l.22.708a1.589,1.589,0,0,1-1.033.059,1.707,1.707,0,0,1-1.055-1.881,1.881,1.881,0,0,1,.84-1.145,1.968,1.968,0,0,1,1.415-.411,1.6,1.6,0,0,1,1.108.727,1.5,1.5,0,0,1,.295,1.109,1.434,1.434,0,0,1-.334.681l-.552-.491a.756.756,0,0,0,.062-.974.833.833,0,0,0-.61-.373,1.4,1.4,0,0,0-.912.322,1.51,1.51,0,0,0-.661.757.8.8,0,0,0,.125.692.745.745,0,0,0,.438.308,1.09,1.09,0,0,0,.654-.086" transform="translate(-392.216 -337.663)" fill="#fff"/>
    <path id="Path_18572" data-name="Path 18572" d="M432.067,351.933l3.3-1.473.3.665-1.3.579.583,1.312,1.3-.58.3.665-3.3,1.47-.294-.662,1.438-.641-.584-1.311-1.441.641Z" transform="translate(-391.955 -337.121)" fill="#fff"/>
    <path id="Path_18573" data-name="Path 18573" d="M433.18,354.423l3.52-.831.164.689-2.026,2.009,2.367-.561.152.659-3.517.831-.168-.71,1.977-1.974-2.315.546Z" transform="translate(-391.706 -336.419)" fill="#fff"/>
    <path id="Path_18574" data-name="Path 18574" d="M435.622,357.61a1.359,1.359,0,0,0-.919.318.97.97,0,0,0,.049,1.432,1.388,1.388,0,0,0,.958.244,1.343,1.343,0,0,0,.913-.307.909.909,0,0,0,.283-.731.936.936,0,0,0-.338-.716,1.39,1.39,0,0,0-.946-.24m-.051-.75a2.334,2.334,0,0,1,.934.128,1.68,1.68,0,0,1,.507.319,1.363,1.363,0,0,1,.343.453,1.968,1.968,0,0,1,.171.771,1.7,1.7,0,0,1-.448,1.3,2.22,2.22,0,0,1-2.744.107,1.9,1.9,0,0,1-.1-2.551,1.853,1.853,0,0,1,1.335-.525" transform="translate(-391.569 -335.688)" fill="#fff"/>
    <path id="Path_18575" data-name="Path 18575" d="M433.9,360.122l3.546.5-.1.717-2.941-.417-.256,1.806-.607-.086Z" transform="translate(-391.624 -334.956)" fill="#fff"/>
    <path id="Path_18576" data-name="Path 18576" d="M435.14,363.561a1.356,1.356,0,0,0-.977-.025.926.926,0,0,0-.526.584.909.909,0,0,0,.075.775,1.393,1.393,0,0,0,.808.563,1.359,1.359,0,0,0,.968.033.9.9,0,0,0,.519-.59.916.916,0,0,0-.067-.786,1.383,1.383,0,0,0-.8-.555m.212-.722a2.272,2.272,0,0,1,.83.448,1.677,1.677,0,0,1,.364.473,1.342,1.342,0,0,1,.162.546,1.955,1.955,0,0,1-.108.785,1.694,1.694,0,0,1-.869,1.058,2.225,2.225,0,0,1-2.613-.862,1.669,1.669,0,0,1-.07-1.36,1.7,1.7,0,0,1,.87-1.064,1.868,1.868,0,0,1,1.435-.023" transform="translate(-391.76 -334.376)" fill="#fff"/>
    <path id="Path_18577" data-name="Path 18577" d="M433.012,367.391l.533.3-.776,1.35-1.249-.716a2.015,2.015,0,0,1-.007-.769,2.41,2.41,0,0,1,.293-.847,1.967,1.967,0,0,1,.7-.736,1.517,1.517,0,0,1,.9-.209,2.2,2.2,0,0,1,.943.3,2.1,2.1,0,0,1,.752.7,1.6,1.6,0,0,1,.24.938,1.878,1.878,0,0,1-.274.837,1.729,1.729,0,0,1-.77.771,1.3,1.3,0,0,1-.923.028l.249-.7a.777.777,0,0,0,.512-.037.857.857,0,0,0,.393-.378.978.978,0,0,0,.115-.807,1.285,1.285,0,0,0-.641-.693,1.424,1.424,0,0,0-.983-.235.964.964,0,0,0-.652.488,1.271,1.271,0,0,0-.151.446,1.512,1.512,0,0,0-.011.449l.4.229Z" transform="translate(-392.086 -333.692)" fill="#fff"/>
    <path id="Path_18578" data-name="Path 18578" d="M430.494,368.567l1.157.991,2.453.354-.558.652-1.644-.29.552,1.567-.548.637-.731-2.372-1.152-.987Z" transform="translate(-392.413 -333.064)" fill="#fff"/>
    <path id="Path_18579" data-name="Path 18579" d="M415.473,377.473l-.679-.132.5-2.561a2.412,2.412,0,0,1-.978.346l.121-.618a1.984,1.984,0,0,0,.641-.219,1.263,1.263,0,0,0,.536-.48l.552.107Z" transform="translate(-395.933 -331.889)" fill="#fff"/>
    <path id="Path_18580" data-name="Path 18580" d="M417.681,375.3a.783.783,0,0,0-.135-.515.449.449,0,0,0-.346-.2.4.4,0,0,0-.322.142.768.768,0,0,0-.139.486.79.79,0,0,0,.118.514.438.438,0,0,0,.338.174.423.423,0,0,0,.335-.147.66.66,0,0,0,.152-.455m-1.607,1.463.674-.051a.52.52,0,0,0,.118.307.387.387,0,0,0,.266.108.434.434,0,0,0,.367-.189,1.68,1.68,0,0,0,.218-.816.81.81,0,0,1-.66.282.961.961,0,0,1-.722-.351,1.188,1.188,0,0,1-.279-.862,1.226,1.226,0,0,1,.354-.873,1.181,1.181,0,0,1,1.726.148,2.209,2.209,0,0,1,.308,1.41,2.232,2.232,0,0,1-.414,1.417,1.181,1.181,0,0,1-.968.409,1.009,1.009,0,0,1-.677-.25,1.1,1.1,0,0,1-.311-.689" transform="translate(-395.543 -331.845)" fill="#fff"/>
    <path id="Path_18581" data-name="Path 18581" d="M418.4,376.9l.687-.117a.576.576,0,0,0,.2.357.479.479,0,0,0,.34.117.465.465,0,0,0,.355-.2.824.824,0,0,0,.116-.547.744.744,0,0,0-.187-.5.5.5,0,0,0-.4-.143.722.722,0,0,0-.523.3l-.562-.044.234-1.9,1.836-.12.04.646-1.31.086-.077.619a1.118,1.118,0,0,1,.469-.144,1.042,1.042,0,0,1,.808.288,1.2,1.2,0,0,1,.379.852,1.306,1.306,0,0,1-.206.815,1.141,1.141,0,0,1-.944.543,1.21,1.21,0,0,1-.827-.213,1.108,1.108,0,0,1-.425-.694" transform="translate(-395.017 -331.823)" fill="#fff"/>
    <path id="Path_18582" data-name="Path 18582" d="M422.318,374.985a.789.789,0,0,0-.207-.5.45.45,0,0,0-.37-.144.4.4,0,0,0-.3.182,1,1,0,0,0,.119,1,.425.425,0,0,0,.357.122.411.411,0,0,0,.312-.19.668.668,0,0,0,.087-.468m-1.389,1.668.662-.147a.472.472,0,0,0,.16.288.361.361,0,0,0,.277.073.45.45,0,0,0,.338-.237,1.714,1.714,0,0,0,.1-.839.823.823,0,0,1-.615.371.967.967,0,0,1-.764-.248,1.184,1.184,0,0,1-.4-.815,1.216,1.216,0,0,1,.229-.913,1.18,1.18,0,0,1,1.732-.094,2.207,2.207,0,0,1,.5,1.356,2.237,2.237,0,0,1-.209,1.46,1.189,1.189,0,0,1-.9.537.982.982,0,0,1-.7-.154,1.085,1.085,0,0,1-.406-.638" transform="translate(-394.506 -331.901)" fill="#fff"/>
    <path id="Path_18583" data-name="Path 18583" d="M425.218,348.479s2.769-.318,3.725-.53a13.535,13.535,0,0,0,1.775-.533m-8.445,3.762s4.006-.34,6.266-.411a15.034,15.034,0,0,0,5.052-1.062m-13.7,3.849a49.5,49.5,0,0,0,8.412-.495,28.156,28.156,0,0,0,6.97-1.405m-28.623,2.571a82.086,82.086,0,0,0,15.241,2.038,45.459,45.459,0,0,0,14.886-2.126m-31.368,2.923a58.479,58.479,0,0,0,16.482,2.216,64.893,64.893,0,0,0,16.394-2.216m-33.495,2.924a82.037,82.037,0,0,0,17.278,2.038,54.347,54.347,0,0,0,16.747-2.125M404.7,362.731a70.412,70.412,0,0,0,17.455,2.214c10.811.087,16.836-2.3,16.836-2.3m-33.848,3.19a70.594,70.594,0,0,0,17.012,1.949c11.078-.088,11.53-1.14,16.394-1.949m-32.52,2.923a74.058,74.058,0,0,0,16.126,1.6,92.952,92.952,0,0,0,15.507-1.6m-30.3,3.014a136.47,136.47,0,0,0,14.726.692,83.47,83.47,0,0,0,14.25-1.136m-23.544,5.141s4.31-.392,9.294-.508a55.364,55.364,0,0,1,8.824.508m-14.423,1.859a20.651,20.651,0,0,1,5.583-.8,24.233,24.233,0,0,1,5.671.709m-5.929-33.2s13.732,1.286,15.044,17.219c-.069,14.56-14.675,17.07-14.675,17.07m-.094-.042s7.462-2.716,9.083-15.1c1.294-9.884-9.1-19.194-9.1-19.194s12.457,5.978,12.241,17.623C434.055,376.588,422.088,379.279,422.088,379.279ZM407,359.64a11.985,11.985,0,0,0-.129,2.3c.208,4.5,1.137,7.4,2.9,9.783,5.462,7.392,12.215,7.558,12.215,7.558a18.05,18.05,0,0,1-8.607-6.425c-3.178-4.3-3.66-11.9-3.66-11.9m3.15-2.753s-.226,7.724,1.93,12.493a21.217,21.217,0,0,0,7.259,8.567s-3.541-3.918-4.626-11.784a37.551,37.551,0,0,1-.261-5.074m4.887,16.8s.034-34.278.077-34.278a33.966,33.966,0,0,1,5.065,17.76c-.289,11.293-5.112,16.53-5.112,16.53Z" transform="translate(-398.086 -338.361)" fill="none" stroke="#fff" stroke-width="0.556"/>
    <path id="Path_18584" data-name="Path 18584" d="M411.276,373.539a.918.918,0,1,1-.919-.918.919.919,0,0,1,.919.918" transform="translate(-397.025 -332.155)" fill="#fff"/>
    <path id="Path_18585" data-name="Path 18585" d="M428.427,373.3a.918.918,0,1,1-.918-.917.921.921,0,0,1,.918.917" transform="translate(-393.182 -332.208)" fill="#fff"/>
    <path id="Path_18586" data-name="Path 18586" d="M421.551,362.923s.062-.092.124-.028.126.073.1.111-.131.023-.131.023a.279.279,0,0,1-.092-.107" transform="translate(-394.311 -334.34)" fill="#fff"/>
    <path id="Path_18587" data-name="Path 18587" d="M423.095,358.961l.1-.132s.067-.06.115-.1.022-.187.126-.18.155,0,.178.154a.733.733,0,0,0-.006.215.479.479,0,0,1-.125.229.872.872,0,0,1-.237.01.178.178,0,0,1-.146-.2" transform="translate(-393.965 -335.308)" fill="#fff"/>
    <line id="Line_563" data-name="Line 563" y1="0.155" x2="23.882" transform="translate(12.112 35.91)" fill="none" stroke="#fff" stroke-width="0.556"/>
    <path id="Path_18588" data-name="Path 18588" d="M407.359,353.707s.07-.122.138-.138.155.07.155.07a.529.529,0,0,0-.033.137.129.129,0,0,1-.105.12.98.98,0,0,0-.173.036l-.12-.138Z" transform="translate(-397.522 -336.425)" fill="#fff"/>
    <path id="Path_18589" data-name="Path 18589" d="M408.74,363.46a1.527,1.527,0,0,0,.18.431.727.727,0,0,1,.071.431h-.143a4.255,4.255,0,0,0-.108.5,6.179,6.179,0,0,0-.251.862c0,.288-.072.5-.072.646a.442.442,0,0,1-.253.432c-.214.108-.321.071-.394-.035s.035-.18.035-.4a1.582,1.582,0,0,0-.071-.431.624.624,0,0,0,.179-.357.567.567,0,0,0-.07-.289l-.073-.215a2.674,2.674,0,0,1,.073-.359c.034-.109.143-.18.359-.288s.322-.144.322-.324a2.47,2.47,0,0,1,.073-.468.49.49,0,0,1,.143-.143" transform="translate(-397.408 -334.208)" fill="#fff"/>
    <path id="Path_18590" data-name="Path 18590" d="M415.887,360.743a1.627,1.627,0,0,0-.552.743c-.013.213.023.327.175.377a.273.273,0,0,0,.377-.176,1.519,1.519,0,0,0,.1-.6c-.023-.24.013-.39-.1-.34" transform="translate(-395.705 -334.819)" fill="#fff"/>
    <path id="Path_18591" data-name="Path 18591" d="M427.018,350.794a1.152,1.152,0,0,1,.448.386c.256.319.362.51.534.575s.512.256.512.341-.364.043-.364.043l-.042.192-.193.021a6.591,6.591,0,0,0-.361-.64c-.151-.213-.341-.362-.449-.532s-.234-.278-.084-.386" transform="translate(-393.102 -337.046)" fill="#fff"/>
    <path id="Path_18592" data-name="Path 18592" d="M428,352.1s.3.022.384.193.127.277.127.277h-.17l.022.193a1.306,1.306,0,0,1-.256-.257A.445.445,0,0,1,428,352.1" transform="translate(-392.87 -336.753)" fill="#fff"/>
    <path id="Path_18593" data-name="Path 18593" d="M428.427,352.8a1.906,1.906,0,0,0,.621.256.51.51,0,0,0,.256-.126s-.086.148.02.234.087.277.022.277-.084.127-.234.127-.17-.064-.364-.256-.512-.34-.321-.512" transform="translate(-392.784 -336.597)" fill="#fff"/>
    <path id="Path_18594" data-name="Path 18594" d="M428.323,353.252s.234-.021.319.108.214.148.108.212-.065.109-.193,0-.129-.064-.192-.149-.17.022-.042-.17" transform="translate(-392.807 -336.496)" fill="#fff"/>
    <path id="Path_18595" data-name="Path 18595" d="M428.788,353.673s.428-.044.47.042a1.415,1.415,0,0,1,.148.618,1.3,1.3,0,0,0,.065.619c.086.171.234.3.108.427a1.268,1.268,0,0,1-.427.213v.127h-.236a1.391,1.391,0,0,0-.3-.191,4.258,4.258,0,0,0-.682.127h-.129s0-.362.17-.384.769,0,.791-.17-.043-.256-.022-.362.17-.107.17-.213-.191-.726-.127-.853" transform="translate(-392.91 -336.404)" fill="#fff"/>
    <path id="Path_18596" data-name="Path 18596" d="M428.306,355.341c.1-.066.2-.069.248,0s.173.206.075.273-.149.184-.3.048a.41.41,0,0,1-.151-.274s-.124.114.126-.047" transform="translate(-392.833 -336.039)" fill="#fff"/>
    <path id="Path_18597" data-name="Path 18597" d="M427.716,355.708s.028-.306.213-.306.241.171.241.34.3.541.122.507a.632.632,0,0,1-.364-.271c-.093-.1-.213.136-.213-.271" transform="translate(-392.93 -336.014)" fill="#fff"/>
    <path id="Path_18598" data-name="Path 18598" d="M425.8,357.019c.136-.02.173.169.154.406a.813.813,0,0,1-.066.286c-.088.187-.048.185-.121.3-.136-.017-.275-.153-.261-.427s.028-.524.294-.563" transform="translate(-393.425 -335.652)" fill="#fff"/>
    <path id="Path_18599" data-name="Path 18599" d="M420.037,362.648s.334.022.545.024.175.137.464.271a3.842,3.842,0,0,0,.709.188c.294.086.419.055.552.257s.282.392.282.392a.561.561,0,0,0,.225.091c.1.006.114.162.114.162l.3.058a4.479,4.479,0,0,0,.307.616c.091.1.023.106.023.106l-.328.162a1.775,1.775,0,0,0-.361-.195c-.133-.038-.171.094-.366-.148s-.821-.677-.892-.788-.169-.067-.26-.17-.078-.244-.188-.338a.163.163,0,0,0-.213,0s-.346-.273-.411-.313a1.952,1.952,0,0,0-.457-.25c-.066,0-.048-.12-.048-.12" transform="translate(-394.651 -334.39)" fill="#fff"/>
    <path id="Path_18600" data-name="Path 18600" d="M422.527,364.925a1.341,1.341,0,0,0,.165-.274c.026-.093.638.028.7.017s.023.125.078.07a1.135,1.135,0,0,1,.216-.13s-.026-.016.168-.033.344-.023.344-.023l-.025.2.362.061.078.071s.275-.055.231.064-.05.076-.176.1-.193.016-.409.037-.233.045-.466.07-.337-.153-.454-.084a1.3,1.3,0,0,1-.308.1,3.528,3.528,0,0,1-.507-.25" transform="translate(-394.093 -333.963)" fill="#fff"/>
    <path id="Path_18601" data-name="Path 18601" d="M423.706,364.635s.149-.17.278-.148-.022.107.107.107.3-.064.322.022a.982.982,0,0,0,.13.235s.256-.149.278-.257a3.13,3.13,0,0,1,.043-.386,2.516,2.516,0,0,0,.13-.45c0-.107.086-.151.17-.236s.193-.13.193-.214.064-.043.021-.173-.279-.427-.214-.6a.431.431,0,0,1,.214-.236s-.129-.065-.108-.13.236.022.258-.108-.171-.129-.279-.277-.237-.366-.237-.366a1.643,1.643,0,0,0-.234.257c-.128.171-.258.087-.258.193v.173s-.129-.151-.214,0-.257.45-.257.45a1.143,1.143,0,0,1-.214.149c-.065.021-.022.279-.084.364s-.26-.062-.366.044-.151.084-.129.257a2.388,2.388,0,0,1-.022.558c-.02.149.173.062.195.256s-.022.258.062.279a.848.848,0,0,0,.173.021s-.064.151.044.214" transform="translate(-393.935 -334.665)" fill="#fff"/>
    <path id="Path_18602" data-name="Path 18602" d="M425.017,363.376l-.214.108a4.153,4.153,0,0,0-.151.643c0,.149.173.065.193.192s-.064.515.064.537.152-.043.152-.043-.023-.408.083-.473.087.022.108.151.28.322.28.322a.64.64,0,0,0,.127-.258c.023-.127-.213-.214-.213-.3a.771.771,0,0,1,.022-.17,1.7,1.7,0,0,1-.237-.3c-.087-.152-.042-.236-.214-.408" transform="translate(-393.617 -334.227)" fill="#fff"/>
    <path id="Path_18603" data-name="Path 18603" d="M425.254,363.756s.094-.241.206-.2a.519.519,0,0,0,.409,0,2,2,0,0,0,.334-.24.535.535,0,0,1-.111.3.294.294,0,0,1-.259.13l-.149.038a2.422,2.422,0,0,0-.428-.018" transform="translate(-393.482 -334.241)" fill="#fff"/>
    <path id="Path_18604" data-name="Path 18604" d="M424.867,365.218s.152-.08.209-.06a.9.9,0,0,1,.19.164v.163h-.131a.2.2,0,0,1-.135-.064c-.056-.059-.153-.059-.133-.2" transform="translate(-393.569 -333.828)" fill="#fff"/>
    <path id="Path_18605" data-name="Path 18605" d="M424.527,365s.151-.164.246-.164.19-.061.342.04.229.022.229.081-.132.083-.209.143-.02.022-.132.042a.621.621,0,0,1-.475-.142" transform="translate(-393.645 -333.904)" fill="#fff"/>
    <path id="Path_18606" data-name="Path 18606" d="M425.309,365.32c-.092-.049.058-.163.058-.225v-.264a1.2,1.2,0,0,0,.3-.124c.076-.061.208-.162.208-.162s.266,0,.266.06-.266.184-.323.245a2.351,2.351,0,0,0-.188.266c-.039.061-.1.327-.323.2" transform="translate(-393.476 -333.965)" fill="#fff"/>
    <path id="Path_18607" data-name="Path 18607" d="M425.707,364.055s.354.037.444.049a2.7,2.7,0,0,1,.274.07s-.054.155.013.22a.549.549,0,0,0,.244.092s.075-.3.191-.327a.675.675,0,0,1,.441.033,1.052,1.052,0,0,0,.413.153,2.3,2.3,0,0,0,.317-.067.588.588,0,0,1,.367.178c.072.1.042.2.111.2s.324.057.317.109-.133.107-.056.218.211.179.295.335a1.7,1.7,0,0,0,.261.328.9.9,0,0,0-.335-.025.519.519,0,0,1-.206.011s-.015-.155-.088-.173-.163-.028-.163-.028a.452.452,0,0,0-.043-.119,1.39,1.39,0,0,1-.064-.146s-.028.037-.1.02-.115-.055-.121,0,.059.115.009.2a.116.116,0,0,1-.122.073l.088.094a.412.412,0,0,1-.113.038,1.817,1.817,0,0,0-.29.031.992.992,0,0,1-.146.047.325.325,0,0,1-.152-.222c-.036-.168-.189.007-.251-.043s.073-.143-.034-.247-.215-.195-.215-.195l-.2-.067a1.6,1.6,0,0,1-.435-.163c-.2-.118-.227-.176-.227-.176l-.035-.088-.225-.08s-.3-.223-.173-.329" transform="translate(-393.39 -334.075)" fill="#fff"/>
    <path id="Path_18608" data-name="Path 18608" d="M426.224,362.318a2.969,2.969,0,0,1,.428.173s-.131-.386,0-.344a.413.413,0,0,0,.212.022s-.256-.452-.212-.536a.386.386,0,0,0,.042-.151l-.151-.213s-.278.171-.278.384-.066.214-.066.214l.151.067-.126.319" transform="translate(-393.27 -334.699)" fill="#fff"/>
    <path id="Path_18609" data-name="Path 18609" d="M425.4,360.638s.151.021.151.149a2.025,2.025,0,0,1-.022.386c-.021.086-.022.064-.107.214s-.087.428-.257.3-.086-.192.021-.406.131-.193.131-.322a.373.373,0,0,1,.083-.321" transform="translate(-393.523 -334.84)" fill="#fff"/>
    <path id="Path_18610" data-name="Path 18610" d="M425.879,360.69a.673.673,0,0,1,.323.151.93.93,0,0,1,.084.471.256.256,0,0,1-.064.171s-.343-.28-.386-.451a.354.354,0,0,1,.042-.343" transform="translate(-393.356 -334.829)" fill="#fff"/>
    <path id="Path_18611" data-name="Path 18611" d="M426.215,360.645a.264.264,0,0,1,.214-.023c.108.044.173.087.173.193s.107.3.022.3-.152.065-.217-.043-.169-.107-.192-.234-.171.062,0-.193" transform="translate(-393.285 -334.847)" fill="#fff"/>
    <path id="Path_18612" data-name="Path 18612" d="M425.9,360.107l-.108.193a.53.53,0,0,0,.193.17c.106.043.087.171.215.043a.2.2,0,0,0,0-.321c-.086-.066-.215-.171-.323-.151" transform="translate(-393.36 -334.974)" fill="#fff"/>
    <path id="Path_18613" data-name="Path 18613" d="M425.46,360.2a1.177,1.177,0,0,1,.322.171c.044.064.151.193.065.279a.216.216,0,0,1-.365-.109c-.044-.214-.173-.17-.022-.342" transform="translate(-393.451 -334.939)" fill="#fff"/>
    <path id="Path_18614" data-name="Path 18614" d="M425.8,360.346a.384.384,0,0,0,.087-.342c-.044-.215.022-.193.022-.279s.04-.149-.044-.235-.279-.344-.279-.344a.427.427,0,0,0-.235-.086c-.13,0-.279.064-.214.171s.086.107.062.236-.127.192-.086.3.257.109.237.259-.193.191-.023.214.173.256.473.105" transform="translate(-393.515 -335.194)" fill="#fff"/>
    <path id="Path_18615" data-name="Path 18615" d="M426.082,361.7a.374.374,0,0,1,.023.193.975.975,0,0,1-.108.214s-.13.086-.13-.127-.042-.345.193-.345" transform="translate(-393.345 -334.617)" fill="#fff"/>
    <path id="Path_18616" data-name="Path 18616" d="M428.755,366.17s.252-.088.326-.053.029.291.029.291l-.188.364a2.431,2.431,0,0,1-.056.651c-.066.151-.248.552-.248.552l-.256.3-.037.274.01.191-.2.37s-.231.373-.307.474a3.925,3.925,0,0,1-.376.354s-.872.523-.961.536a4.039,4.039,0,0,0-.684.3,7.061,7.061,0,0,1-1.053.578c-.241.069-.919.17-.919.17l-.5-.093-.122-.253.471-.081.132-.092-.564-.188.168-.285-.8-.149a.391.391,0,0,0-.212.072l-.5-.065-.3.2a3.793,3.793,0,0,1-.452-.028c-.138-.025-.225.13-.364.1s-.577-.136-.577-.136l-.179.195s-.171,0-.211-.1-.274-.223-.274-.223a.985.985,0,0,1,.246-.24l.327-.225.021-.252-.171-.006-.058-.153s.2-.162.223-.272a2.753,2.753,0,0,1,.163-.4l.023-.14-.121-.108.191-.252.263-.034a.807.807,0,0,1,.406-.039l.133.055a.482.482,0,0,0,.419-.094,3.157,3.157,0,0,0,.387-.387s.042-.22.163-.255a2.569,2.569,0,0,1,.463-.028l-.051.277.083.015.257-.151a.22.22,0,0,1,.135-.262c.186-.08.339-.136.339-.136l.016-.084.536.043-.029.311.175-.169.275.053.152-.2.062-.333a.906.906,0,0,1,.269-.206,1.8,1.8,0,0,1,.7-.071l.132-.088.327.088.1-.209.143-.317.166-.111.415.076-.06.162.168.031.1-.094a.43.43,0,0,0,.409.105.985.985,0,0,1,.535.043l-.023.28-.1.239-.256-.017-.251.122.018.2.127.082.175-.023.141.026-.058.3.191-.106a1.675,1.675,0,0,0,.289-.317c.118-.179.263-.18.308-.43a.635.635,0,0,1,.185-.366c.071-.11.016.06.031-.167" transform="translate(-394.76 -333.635)" fill="#fff"/>
    <path id="Path_18617" data-name="Path 18617" d="M425.341,370.712c-.089-.186.268-.23.379-.415s.6-.164.69-.324.914-.324.894-.419.176-.253.311-.206-.135.277-.29.439a4.7,4.7,0,0,1-1.026.67,4.392,4.392,0,0,0-.624.278c-.155.094-.246.162-.334-.023" transform="translate(-393.465 -332.89)" fill="#fff"/>
    <path id="Path_18618" data-name="Path 18618" d="M427.408,369.043a.7.7,0,0,0-.073.344c.023.149.223-.049.319-.148s.3-.171.3-.295.322-.37.1-.519-.321.3-.419.4a2.144,2.144,0,0,1-.224.223" transform="translate(-393.016 -333.102)" fill="#fff"/>
    <path id="Path_18619" data-name="Path 18619" d="M422.7,370.669s.28-.229.432-.077.154.332-.051.332-.406.025-.381-.255" transform="translate(-394.054 -332.622)" fill="#fff"/>
  </g>
</svg>
